<svg width="1436" height="272" viewBox="0 0 1436 272" fill="none" xmlns="http://www.w3.org/2000/svg">
<path d="M95.9997 13C60.333 56.3333 4.99945 164 13.9997 188C22.9999 212 213 44 213 22C213 0 98.9997 162 116 166C129.6 169.2 177.666 139.333 200 124C189.666 139 170.8 169.6 178 172C187 175 309 52 304 42C299 32 240.153 140.686 247 149C261 166 318 116 325 124C314.333 130.667 297.2 143.6 314 142C330.8 140.4 358.333 129.333 370 124L360 149L399 142L393 149C414.333 141.667 523 113 607 101" stroke="black" stroke-width="25" stroke-linecap="round" stroke-linejoin="round"/>
<path d="M754 28.9997C736 82.9997 686 152 697 175M688 103C754 131 821 76.9997 829 36.9997C829 18 749 108.002 749 154C749 175.213 827 104 835 116C841.4 125.6 825 150 801 162C801 141 840.8 112 880 95.9996C884 100.666 884.4 117.8 854 149C823.6 180.2 897.667 139.333 937 111L931 144L989 116C989 116 989 126 978 139C1017.6 117 1078 44.9997 1073 36.9997C1054.33 50.6664 1000 108 1015 126C1030 144 1196 78.9997 1203 98.9997C1184.67 110.666 1151.4 135 1165 139C1178.6 143 1223.33 132 1244 126C1261 122.666 1299.6 120.6 1318 139C1336.4 157.4 1319.67 181.333 1309 191C1278.03 239.036 1167.43 269.196 1165 256C1198.04 209.426 1429.02 7.00198 1423 23.9997" stroke="black" stroke-width="25" stroke-linecap="round" stroke-linejoin="round"/>
</svg>
